<?xml version="1.0" encoding="iso-8859-1"?>
<!-- Generator: Adobe Illustrator 19.0.0, SVG Export Plug-In . SVG Version: 6.00 Build 0)  -->
<svg version="1.1" id="Layer_1" xmlns="http://www.w3.org/2000/svg" xmlns:xlink="http://www.w3.org/1999/xlink" x="0px" y="0px"
	 viewBox="0 0 214.2 214.2" style="enable-background:new 0 0 214.2 214.2;" xml:space="preserve">
<g>
	<g>
		<g>
			<path d="M194.39,55.534h-39.024l-8.733-32.756c-0.463-1.735-2.036-2.944-3.833-2.944H71.4c-1.797,0-3.37,1.209-3.833,2.944
				l-8.733,32.756H19.81C8.886,55.534,0,64.425,0,75.355v99.19c0,10.929,8.886,19.821,19.81,19.821h174.58
				c10.924,0,19.81-8.892,19.81-19.822v-99.19C214.2,64.425,205.314,55.534,194.39,55.534z M194.39,186.434H19.81
				c-6.548,0-11.877-5.332-11.877-11.889v-99.19c0-6.557,5.328-11.888,11.877-11.888h42.07c1.797,0,3.37-1.209,3.833-2.944
				l8.733-32.756h65.307l8.733,32.756c0.463,1.735,2.035,2.944,3.833,2.944h42.07c6.548,0,11.877,5.332,11.877,11.888v99.19h0.001
				C206.267,181.102,200.939,186.434,194.39,186.434z"/>
			<rect x="83.3" y="35.701" width="47.6" height="7.933"/>
			<path d="M107.1,71.401c-28.435,0-51.567,23.132-51.567,51.567s23.132,51.567,51.567,51.567c28.435,0,51.567-23.132,51.567-51.567
				S135.535,71.401,107.1,71.401z M107.1,166.6c-24.059,0-43.633-19.574-43.633-43.633c0-24.059,19.574-43.634,43.633-43.634
				c24.059,0,43.633,19.574,43.633,43.633S131.159,166.6,107.1,166.6z"/>
			<path d="M134.867,122.967c0-5.112-1.413-9.89-3.833-14.009l3.355-2.716c1.702-1.379,1.964-3.877,0.587-5.58
				c-1.381-1.706-3.879-1.966-5.58-0.587l-3.313,2.682c-4.057-3.813-9.248-6.41-15.015-7.241v-4.284c0-2.19-1.776-3.967-3.967-3.967
				c-2.19,0-3.967,1.776-3.967,3.967v4.283c-5.767,0.831-10.959,3.428-15.015,7.241l-3.313-2.682
				c-1.702-1.375-4.197-1.115-5.58,0.587c-1.377,1.702-1.115,4.201,0.587,5.58l3.355,2.716c-2.42,4.119-3.833,8.897-3.833,14.009
				c0,0.757,0.054,1.501,0.113,2.243l-4.175,0.965c-2.134,0.492-3.465,2.622-2.971,4.757c0.422,1.834,2.055,3.074,3.86,3.074
				c0.296,0,0.597-0.033,0.897-0.103l4.159-0.961c2.065,5.34,5.71,9.898,10.39,13.057l-1.86,3.812
				c-0.961,1.968-0.143,4.344,1.826,5.305c0.56,0.273,1.152,0.401,1.735,0.401c1.47,0,2.882-0.819,3.57-2.227l1.874-3.841
				c2.637,0.833,5.439,1.286,8.347,1.286c2.908,0,5.71-0.454,8.347-1.286l1.874,3.841c0.687,1.41,2.1,2.227,3.57,2.227
				c0.583,0,1.176-0.128,1.735-0.401c1.97-0.961,2.787-3.337,1.826-5.305l-1.86-3.812c4.681-3.159,8.325-7.718,10.39-13.057
				l4.159,0.961c0.3,0.07,0.601,0.103,0.897,0.103c1.805,0,3.438-1.24,3.86-3.074c0.494-2.134-0.837-4.265-2.971-4.757l-4.175-0.965
				C134.813,124.469,134.867,123.724,134.867,122.967z M107.1,142.8c-10.935,0-19.833-8.898-19.833-19.833
				s8.898-19.833,19.833-19.833s19.833,8.898,19.833,19.833S118.035,142.8,107.1,142.8z"/>
		</g>
	</g>
</g>
<g>
</g>
<g>
</g>
<g>
</g>
<g>
</g>
<g>
</g>
<g>
</g>
<g>
</g>
<g>
</g>
<g>
</g>
<g>
</g>
<g>
</g>
<g>
</g>
<g>
</g>
<g>
</g>
<g>
</g>
</svg>
