<svg xmlns="http://www.w3.org/2000/svg" xmlns:xlink="http://www.w3.org/1999/xlink" version="1.1" x="0px" y="0px" viewBox="0 0 100 125" enable-background="new 0 0 100 100" xml:space="preserve"><g><g><path d="M34.5,25.6L30.1,39l9.5-3.5c-0.2-0.4-0.2-0.9,0-1.3L44,20.8l-9.5,3.5C34.7,24.7,34.7,25.1,34.5,25.6z"/><path d="M62,15.5l-4.5,13.4l9.5-3.5c-0.2-0.4-0.2-0.9,0-1.3l4.5-13.4L62,14.2C62.1,14.6,62.1,15.1,62,15.5z"/><path d="M48.3,20.5L43.8,34l9.5-3.5c-0.2-0.4-0.2-0.9,0-1.3l4.5-13.4l-9.5,3.5C48.4,19.6,48.4,20.1,48.3,20.5z"/><path d="M20.8,30.6L16.4,44c0.1,0,0.1,0,0.2,0l9.3-3.4c-0.2-0.4-0.2-0.9,0-1.3l4.5-13.4l-9.5,3.5C20.9,29.7,20.9,30.2,20.8,30.6z"/><path d="M12.3,32.4c-1.4,0.5-2.1,2.1-1.6,3.5l2.2,6l3.7-11L12.3,32.4z"/><path d="M75.7,10.5l-4.5,13.4L83,19.6c1.4-0.5,2.1-2.1,1.6-3.5l-2.4-6.4c-0.5-1.4-2.1-2.1-3.5-1.6l-3,1.1    C75.8,9.6,75.9,10,75.7,10.5z"/><path d="M62.4,55.6l-13-9.9c-0.5-0.4-0.8-1-0.8-1.6H35.2l15.1,11.5H62.4z"/><path d="M86.5,44.1h-14l15.1,11.5h1.9v-8.5C89.5,45.5,88.2,44.1,86.5,44.1z"/><path d="M81,55.6l-13-9.9c-0.5-0.4-0.8-1-0.8-1.6H53.9L69,55.6H81z"/><path d="M13.3,59.6v29.5c0,1.6,1.3,3,3,3h70.3c1.6,0,3-1.3,3-3V59.6L13.3,59.6C13.3,59.6,13.3,59.6,13.3,59.6z"/><path d="M13.3,47.1v8.5c0,0,0,0,0,0h11.8l-11.8-9C13.3,46.8,13.3,47,13.3,47.1z"/><path d="M43.7,55.6l-13-9.9c-0.5-0.4-0.8-1-0.8-1.6H16.6l15.1,11.5H43.7z"/></g></g></svg>