<svg xmlns="http://www.w3.org/2000/svg" width="739.66" height="876.51" viewBox="0 0 739.66 876.51"><defs><style>.a{fill:#fff;}.b{fill:#c4242b;}.c{fill:#090909;}.d{fill:#ae8732;}.e,.f{fill:none;}.f{stroke:#000;stroke-miterlimit:10;stroke-width:9.03px;}</style></defs><title>hufa-logo</title><path d="M809,15h0c0,92.6.16,129.45,0,222.1.33,56.4-11.94,145.83-21.4,186.24-16.68,71.88-40.08,142.8-76,207.49-33.19,59.75-79.2,111.41-129.72,157-42.73,38.18-93.25,74.58-142.65,103.64h0c-49.4-29.06-99.91-65.46-142.64-103.64-50.52-45.63-96.53-97.29-129.72-157-35.93-64.69-59.33-135.61-76-207.49C81.41,382.93,69.13,293.5,69.47,237.1c-.14-92.65,0-129.5,0-222.1H809Z" transform="translate(-69.42 -15)"/><path class="a" d="M799.82,25.88h0c0,90.3.15,126.24,0,216.59.33,55-11.64,142.2-20.86,181.61-16.27,70.1-39.08,139.26-74.12,202.34-32.37,58.27-77.24,108.64-126.5,153.14-41.67,37.23-90.93,72.73-139.11,101.07h0c-48.17-28.34-97.43-63.84-139.1-101.07-49.27-44.5-94.14-94.87-126.5-153.14-35-63.08-57.86-132.24-74.12-202.34-9.23-39.41-21.2-126.61-20.87-181.61-.14-90.35,0-126.29,0-216.59H799.82Z" transform="translate(-69.42 -15)"/><path class="b" d="M78.53,23.5H800V226.6H78.53c-.06-67.68.07-135.39,0-203.1Z" transform="translate(-69.42 -15)"/><path class="c" d="M276.91,164.25c-.88-3.59-.43-8.56,3.57-10.06,3.85-.9,7.87-.27,11.78-.48.47-11.4.09-22.81.22-34.21-.1-5.09.27-10.19-.32-15.26-3.78-.18-7.58-.18-11.33-.68-5.86-2-5.66-12,.08-13.9,3.73-.62,7.56-.09,11.34-.37.39-3.74.05-7.51.34-11.26a6,6,0,0,1,6.09-5.14c3.55-.25,7.36.53,10.44-1.72h0C318,69.82,327,70.64,336,71c6.82.86,13.82,2.07,19.83,5.65a45.93,45.93,0,0,1,17.4-4.87c8.74-1.48,17.63-.78,26.45-.88,2.24-.22,3.73,1.72,5.73,2.31,3.21.43,6.54-.45,9.67.57,2.09.72,3.15,2.94,3.43,5,.37,3.49-.22,7,.36,10.5,3.88,1.15,8.14-.31,12,.85,4,2.36,4.94,8.66,1.64,12a4.93,4.93,0,0,1-3.58,1.92c-3.39.14-6.8,0-10.17.45-.19,2.77-.24,5.56-.21,8.34.07,13.71-.09,27.41.07,41.16,3.89.57,7.81,0,11.75.47,5.73,2.08,5.65,12.06-.31,13.8-3.7.36-7.48-.08-11.13.78-1,5.3.35,10.83-.67,16.15-.84,3.56-4.49,5.49-7.94,5.4-15.73.09-31.48,0-47.22.07-3,0-5.58,2-8.6,1.59-2.53-.09-4.56-2.1-7.14-1.95-15.5,0-31,0-46.51,0-4,.2-8.42-2.87-8.36-7.13-.15-4.86.17-9.72-.22-14.56-3.35-.3-6.73-.09-10.08-.31-2.39-.13-4.28-2.11-5.29-4.12" transform="translate(-69.42 -15)"/><path class="a" d="M354.23,166.55a24.2,24.2,0,0,1-.93,6c-3.7.06-7.33-.78-11-1-6.88-.68-13.81-.4-20.71-.42-3.15,0-7,.92-9.4-1.7-1.11-1.67-1.14-3.83-1.18-5.78,0-28.39,0-56.79,0-85.17.22-1.44,0-3.94,1.88-4.26h0c5.91-1,11.92-.4,17.88-.22,6,.65,12.1,1.08,17.82,3.15a13.91,13.91,0,0,1,4.66,2.51,9,9,0,0,1,.93,4.52" transform="translate(-69.42 -15)"/><path class="a" d="M356.89,83.25c.19-1.74.84-3.6,2.56-4.29h0c7.28-3.8,15.68-3.83,23.65-4.48,5.44.22,11-.63,16.32.65,1,2.93.65,6.08.72,9.16q0,40,0,80.18c-.12,2-.19,4.44-1.85,5.87-1.36,1.28-3.35,1.31-5.11,1.37-6.46,0-12.92,0-19.38,0-5.34-.18-10.58,1-15.87,1.55-.29-.74-.61-1.46-.86-2.2" transform="translate(-69.42 -15)"/><path class="d" d="M296.64,77.93c1-1.82,3.38-.77,5-1.09-1,1-2,2.07-3,3.08q0,51.54,0,103c15.68-.05,31.36,0,47.05,0,.15,1.07.36,2.07.5,3.15-15.38-.06-30.76,0-46.13-.05a3.47,3.47,0,0,1-3.73-3.74c-.08-6,.06-11.91.08-17.85-4.77,0-9.54-.25-14.31-.12a4.44,4.44,0,0,1-.68-6.38c5-.36,10,0,14.94-.17,0-19.25,0-38.51,0-57.78-4.8-.08-9.62,0-14.39-.49-2.05-1.32-1.59-4.3-.49-6.11,4.93-.48,9.91-.08,14.87-.18.18-5.12-.34-10.2.3-15.29Z" transform="translate(-69.42 -15)"/><path class="d" d="M409.13,77.1a33.33,33.33,0,0,1,4.58.28,4.64,4.64,0,0,1,.93,3.27c0,4.31,0,8.59,0,12.89,4.78.07,9.57-.22,14.32.13,2.22,1.29,1.64,4.66.14,6.35-4.83.09-9.66.45-14.49.47V158c4.29.08,8.58,0,12.89,0,3.79-1,4.15,6.23.64,6.42-4.5.33-9,.41-13.53.49,0,5.53,0,11.09,0,16.6,0,1.36,0,2.91-1,3.95-1.34,1.05-3.12,1.07-4.74,1.09-14.88,0-29.77,0-44.65,0l.6-3.28c15.86,0,31.72,0,47.56,0-.09-34.34,0-68.7-.05-103C411.28,79.22,410.2,78.15,409.13,77.1Z" transform="translate(-69.42 -15)"/><path class="d" d="M302.67,83.55c-.11-2.84,3-4.14,4.68-6q0,44.13,0,88.26c0,2.58.71,5.37,2.79,7a9.54,9.54,0,0,0,6.44,2c10.72,0,21.56-.73,32.21,1.18l-2.09,2.62q-22,0-43.95,0-.13-47.53-.07-95.15Z" transform="translate(-69.42 -15)"/><path class="d" d="M403.37,77.72c1.61,1.43,3.22,2.86,4.8,4.35v97.27c-14.66-.1-29.31,0-44-.07l-1.85-3.05c4.31-.23,8.59-.69,12.89-1,6.21-.12,12.43-.11,18.68.1,2.85.07,6-.59,7.91-2.89,1.6-1.78,1.57-4.31,1.61-6.55-.08-29.37,0-58.79,0-88.14Z" transform="translate(-69.42 -15)"/><path class="d" d="M352.68,178.31a5.32,5.32,0,0,1,7.59,2.56c2.16,3.79-2.39,8.77-6.43,7.16-4.47-1-5.2-7.58-1.19-9.72Z" transform="translate(-69.42 -15)"/><path d="M326.29,107.85c0-10.26-.67-10.92-5.63-11.92l-2.76-.55c-.88-.66-1-3.09.22-3.75,5.3.22,10.81.33,16.11.33s10.82-.11,16.11-.33c.89.66.89,3.09,0,3.75l-2.65.44c-5,.89-5.62,1.77-5.62,12v25.49c0,12.91,1.43,27.15,18.2,27.15,14.13,0,18.43-12.36,18.43-27.48V119.66c0-8.94-.44-17.33-1.65-20.2-1-2.31-3.42-3-6.4-3.53l-3-.55a3.31,3.31,0,0,1,0-3.75c6,.22,10.26.33,14.78.33,4.09,0,8.17-.11,12.36-.33a3.29,3.29,0,0,1,0,3.75l-2,.44c-2.87.66-5,1.33-6,3.64-1.22,2.87-1.66,11.26-1.66,20.2V132c0,10.37-1,19.86-7.06,26.59-4.85,5.19-12.91,7.95-21.85,7.95-8.39,0-15.89-1.33-21.85-6.18-5.74-4.75-8.16-12.91-8.16-24.94Z" transform="translate(-69.42 -15)"/><path class="c" d="M445.14,164.67c-.87-3.58-.42-8.55,3.57-10,3.85-.91,7.87-.28,11.78-.49.48-11.39.09-22.8.22-34.21-.1-5.08.27-10.18-.32-15.25-3.78-.19-7.58-.18-11.33-.68-5.86-2-5.65-12,.08-13.9,3.74-.62,7.57-.1,11.34-.37.39-3.74.06-7.52.34-11.27a6.07,6.07,0,0,1,6.1-5.14c3.54-.25,7.36.54,10.43-1.71h0c8.87-1.35,17.93-.54,26.87-.16C511,72.3,518,73.52,524,77.1a45.94,45.94,0,0,1,17.41-4.88c8.74-1.47,17.63-.78,26.45-.87,2.23-.23,3.72,1.72,5.72,2.31,3.21.43,6.54-.46,9.67.57,2.09.71,3.15,2.93,3.43,5,.37,3.48-.22,7,.36,10.5,3.88,1.14,8.14-.31,12,.84,4,2.37,4.94,8.67,1.65,12a5,5,0,0,1-3.58,1.92c-3.4.13-6.8,0-10.18.45-.19,2.77-.23,5.55-.2,8.33.06,13.72-.1,27.42.07,41.16,3.88.58,7.8,0,11.74.48,5.73,2.07,5.65,12-.31,13.79-3.7.37-7.47-.07-11.13.79-1,5.3.36,10.83-.67,16.15-.84,3.56-4.49,5.48-7.94,5.4-15.73.09-31.47,0-47.22.07-3-.06-5.58,2-8.6,1.59-2.53-.09-4.56-2.1-7.14-1.95-15.5,0-31,0-46.51,0-4,.19-8.42-2.87-8.36-7.14-.15-4.85.17-9.71-.21-14.56-3.36-.29-6.73-.08-10.09-.3-2.39-.13-4.28-2.11-5.29-4.13" transform="translate(-69.42 -15)"/><path class="a" d="M522.47,167a24.2,24.2,0,0,1-.93,6c-3.7.07-7.33-.78-11-1-6.89-.68-13.82-.4-20.72-.42-3.14,0-7,.92-9.39-1.7-1.12-1.67-1.15-3.84-1.19-5.78,0-28.4,0-56.79,0-85.18.22-1.43,0-3.94,1.89-4.26h0c5.9-1,11.92-.39,17.87-.21,6,.64,12.1,1.07,17.83,3.15a13.94,13.94,0,0,1,4.65,2.5,9,9,0,0,1,.93,4.53" transform="translate(-69.42 -15)"/><path class="a" d="M525.12,83.68c.19-1.74.84-3.6,2.56-4.3h0c7.28-3.8,15.68-3.83,23.65-4.47,5.44.21,11-.64,16.33.64,1,2.94.64,6.09.71,9.17q0,40.05,0,80.17c-.12,2-.19,4.45-1.84,5.88-1.37,1.28-3.36,1.31-5.12,1.36H542.05c-5.34-.18-10.59,1-15.87,1.54-.3-.73-.61-1.46-.86-2.19" transform="translate(-69.42 -15)"/><path class="d" d="M464.87,78.35c1-1.81,3.38-.76,5-1.08-1,1-2,2.06-3,3.08q0,51.54,0,103c15.69,0,31.37,0,47,0,.16,1.08.36,2.08.5,3.15-15.38,0-30.76,0-46.13,0a3.47,3.47,0,0,1-3.73-3.74c-.08-5.95.07-11.91.08-17.86-4.77,0-9.54-.24-14.31-.11a4.44,4.44,0,0,1-.67-6.39c5-.36,10,0,14.94-.16q0-28.89,0-57.78c-4.79-.09-9.62,0-14.39-.49-2-1.33-1.59-4.3-.49-6.11,4.93-.48,9.92-.08,14.87-.19.19-5.12-.34-10.2.31-15.29Z" transform="translate(-69.42 -15)"/><path class="d" d="M577.36,77.52a31.83,31.83,0,0,1,4.58.29,4.59,4.59,0,0,1,.93,3.27c0,4.3,0,8.59,0,12.89,4.78.07,9.57-.22,14.32.13,2.22,1.29,1.65,4.65.14,6.34-4.83.1-9.65.45-14.49.47v57.56c4.29.07,8.59-.06,12.89,0,3.79-1,4.15,6.23.64,6.42-4.5.32-9,.4-13.53.48V182c0,1.36,0,2.91-1,3.94C580.5,187,578.72,187,577.1,187H532.45c.2-1.1.4-2.19.61-3.29,15.85,0,31.71,0,47.55,0-.09-34.35,0-68.7-.05-103.06C579.51,79.65,578.43,78.57,577.36,77.52Z" transform="translate(-69.42 -15)"/><path class="d" d="M470.9,84c-.11-2.83,3-4.13,4.68-6q0,44.13,0,88.27c0,2.58.71,5.37,2.79,7a9.61,9.61,0,0,0,6.44,2c10.73,0,21.56-.74,32.22,1.18-.7.86-1.4,1.73-2.09,2.62q-22,0-44,0-.12-47.53-.07-95.16Z" transform="translate(-69.42 -15)"/><path class="d" d="M571.61,78.14c1.61,1.44,3.22,2.87,4.79,4.36v97.26c-14.65-.1-29.31,0-44-.06-.61-1-1.23-2-1.84-3,4.3-.23,8.59-.7,12.88-1,6.22-.12,12.44-.1,18.69.1,2.84.08,6-.58,7.9-2.89,1.6-1.77,1.57-4.31,1.62-6.55-.09-29.36,0-58.78,0-88.14Z" transform="translate(-69.42 -15)"/><path class="d" d="M520.91,178.74a5.32,5.32,0,0,1,7.59,2.55c2.16,3.79-2.39,8.77-6.43,7.16-4.46-1-5.2-7.58-1.19-9.71Z" transform="translate(-69.42 -15)"/><path d="M519.46,121.53c0,3,.11,3.31,3.09,3.31h8.5c5.85,0,7.06-.77,8.16-6.18l.56-2.64c.77-1,3.53-.89,4.19.11-.22,3.53-.33,7.61-.33,11.8s.11,8.17.33,11.48c-.66,1-3.42,1.1-4.19.11l-.56-2.65c-1.1-5.29-2.31-6.18-8.16-6.18h-8.5c-3,0-3.09.33-3.09,3.31v14.9c0,10.26.66,11.15,5.63,11.81l4.08.55c.77.66.77,3.2,0,3.86-6.84-.22-12.25-.33-17.54-.33-5.08,0-10.6.11-17.22.33-.88-.66-.88-3.2,0-3.86l3.64-.55c5-.77,5.63-1.55,5.63-11.81V107.85c0-10.26-.66-11.26-5.63-12l-2.2-.33c-1-.66-1-3.42.22-3.86,4.74.22,10.26.33,15.56.33H534.8c7.06,0,13.35-.11,14.9-.33,0,1.87,0,9.82.22,17.21-.44,1.22-2.87,1.33-4.2.44-1.21-4.52-2.09-7.17-3.2-8.6-1.87-2.32-5.18-3.64-10.81-3.64H523.1c-3.64,0-3.64.22-3.64,4.52Z" transform="translate(-69.42 -15)"/><path class="c" d="M613.37,165.11c-.87-3.59-.42-8.55,3.57-10.05,3.86-.91,7.87-.28,11.79-.49.47-11.39.08-22.81.21-34.21-.1-5.08.27-10.19-.31-15.25-3.78-.19-7.58-.18-11.34-.68-5.86-2-5.65-12,.08-13.91,3.74-.61,7.57-.09,11.34-.36.4-3.75.06-7.52.35-11.27a6,6,0,0,1,6.09-5.14c3.54-.25,7.36.54,10.44-1.71h0c8.87-1.35,17.93-.54,26.88-.16,6.81.86,13.81,2.08,19.83,5.66a45.71,45.71,0,0,1,17.4-4.88c8.74-1.47,17.63-.78,26.45-.87,2.23-.23,3.72,1.72,5.73,2.3,3.2.43,6.53-.45,9.66.58,2.09.71,3.15,2.93,3.44,5,.36,3.49-.22,7,.36,10.51,3.88,1.14,8.13-.31,12,.84,4,2.36,4.94,8.66,1.65,12a5,5,0,0,1-3.58,1.92c-3.39.13-6.8,0-10.17.45-.2,2.77-.24,5.55-.21,8.33.06,13.72-.09,27.42.07,41.16,3.89.58,7.8,0,11.74.48,5.73,2.07,5.66,12-.31,13.79-3.7.37-7.47-.07-11.13.79-1,5.3.36,10.83-.66,16.15-.84,3.56-4.49,5.48-7.94,5.4-15.74.09-31.48,0-47.22.07-3-.06-5.59,2-8.61,1.59-2.52-.1-4.56-2.1-7.13-1.95-15.5,0-31,0-46.52,0-4,.19-8.41-2.87-8.36-7.14-.15-4.85.18-9.71-.21-14.56-3.36-.29-6.73-.08-10.09-.31-2.39-.13-4.28-2.1-5.29-4.12" transform="translate(-69.42 -15)"/><path class="a" d="M690.7,167.42a24.2,24.2,0,0,1-.93,6c-3.7.07-7.33-.78-11-1-6.89-.68-13.82-.4-20.72-.42-3.14,0-7,.92-9.39-1.7-1.12-1.68-1.15-3.84-1.19-5.79,0-28.39,0-56.79,0-85.17.21-1.43,0-3.94,1.88-4.26h0c5.9-1,11.92-.39,17.87-.21,6,.64,12.1,1.07,17.83,3.15a13.76,13.76,0,0,1,4.65,2.5,8.89,8.89,0,0,1,.93,4.53" transform="translate(-69.42 -15)"/><path class="a" d="M693.36,84.12c.18-1.74.83-3.6,2.55-4.3h0c7.28-3.8,15.68-3.83,23.66-4.47,5.44.21,11-.64,16.32.64,1,2.94.64,6.09.71,9.16v80.18c-.13,2-.2,4.45-1.85,5.88-1.37,1.27-3.36,1.31-5.12,1.36H710.28c-5.34-.18-10.59,1-15.87,1.54-.29-.74-.61-1.46-.86-2.2" transform="translate(-69.42 -15)"/><path class="d" d="M633.1,78.79c1-1.81,3.39-.77,5-1.08-1,1-2,2.06-3,3.08q0,51.54,0,103c15.68,0,31.36,0,47,0,.16,1.08.36,2.08.5,3.15-15.37-.06-30.76,0-46.13,0a3.48,3.48,0,0,1-3.73-3.75c-.08-5.94.07-11.9.08-17.85-4.77,0-9.53-.24-14.31-.11a4.45,4.45,0,0,1-.67-6.39c5-.36,10,0,14.94-.16,0-19.26,0-38.52,0-57.78-4.8-.09-9.62,0-14.39-.5-2.05-1.32-1.6-4.29-.5-6.1,4.94-.48,9.92-.08,14.87-.19.19-5.12-.33-10.2.31-15.29Z" transform="translate(-69.42 -15)"/><path class="d" d="M745.59,78a32.06,32.06,0,0,1,4.59.29,4.63,4.63,0,0,1,.93,3.27c0,4.3,0,8.59,0,12.88,4.77.07,9.57-.21,14.31.14,2.22,1.29,1.65,4.65.15,6.34-4.84.09-9.66.45-14.49.47v57.56c4.29.07,8.58-.06,12.88,0,3.8-1,4.15,6.23.65,6.41-4.51.33-9,.41-13.53.49,0,5.53,0,11.1,0,16.61,0,1.36,0,2.9-1,3.94-1.33,1.06-3.12,1.07-4.73,1.09H700.69l.6-3.29c15.85,0,31.71,0,47.55,0-.08-34.35,0-68.7-.05-103.06C747.74,80.09,746.67,79,745.59,78Z" transform="translate(-69.42 -15)"/><path class="d" d="M639.14,84.41c-.12-2.84,3-4.13,4.67-6q0,44.13,0,88.27c0,2.57.72,5.37,2.79,7a9.58,9.58,0,0,0,6.45,2c10.72,0,21.56-.74,32.21,1.17-.7.87-1.4,1.74-2.09,2.62q-22,0-44,0-.12-47.52-.07-95.15Z" transform="translate(-69.42 -15)"/><path class="d" d="M739.84,78.58c1.61,1.43,3.22,2.87,4.79,4.35V180.2c-14.65-.1-29.3,0-44-.06l-1.85-3c4.3-.23,8.59-.7,12.88-1,6.22-.12,12.44-.1,18.69.1,2.85.07,6-.58,7.9-2.89,1.61-1.77,1.58-4.31,1.62-6.55-.09-29.36,0-58.79,0-88.14Z" transform="translate(-69.42 -15)"/><path class="d" d="M689.15,179.18a5.32,5.32,0,0,1,7.59,2.55c2.16,3.79-2.4,8.77-6.43,7.16-4.47-1-5.21-7.58-1.2-9.71Z" transform="translate(-69.42 -15)"/><path d="M682.43,135.78c-2.64,0-3,.11-3.64,2.2l-4.3,12.81a12.88,12.88,0,0,0-.77,4c0,.66,1.43,1.32,4.52,1.87l3.31.56c.66.77.88,3.31-.22,3.86-3.86-.22-7.83-.22-12.47-.33-3.75,0-6.29.33-11.37.33-1.21-.66-1.1-3-.33-3.86l3-.34c2.65-.33,4.86-1.21,6.73-5.51s4-9.71,7-17.66l10-26.93c2.54-7,4.41-10.81,4.08-14,5.3-1.21,9.38-6.62,9.6-6.62,1.44,0,2.1.55,2.54,2.21.88,3.2,2.21,7.28,5,15.11l15,43.26c2.32,6.62,3.31,9.16,7.4,9.82l4.19.67c.66.55.88,3.2-.11,3.86-5.3-.22-11.26-.33-17-.33-5.52,0-9.83.11-14.9.33a2.49,2.49,0,0,1-.22-3.86l3.53-.56c2.54-.44,3-1.21,3-1.87s-.77-3.42-2.1-7.51l-3-9.49c-.55-1.76-1.43-2-5.29-2ZM695,129.93c2.54,0,3.09-.33,2.21-3.2l-2.87-8.94c-1.54-4.75-3.53-10.7-4.52-13-.89,2.54-3.09,8.5-4.75,13.57l-2.76,8.28c-1,3-.44,3.31,2.32,3.31Z" transform="translate(-69.42 -15)"/><path class="c" d="M113.92,164.25c-.87-3.59-.42-8.56,3.57-10.06,3.86-.9,7.87-.27,11.79-.48.47-11.4.08-22.81.21-34.21-.1-5.09.27-10.19-.31-15.26-3.78-.18-7.58-.18-11.34-.68-5.86-2-5.65-12,.08-13.9,3.74-.62,7.57-.09,11.34-.37.4-3.74.06-7.51.35-11.26a6,6,0,0,1,6.09-5.14c3.54-.25,7.36.53,10.44-1.72h0C155,69.82,164.05,70.64,173,71c6.81.86,13.81,2.07,19.83,5.65a45.88,45.88,0,0,1,17.4-4.87c8.74-1.48,17.63-.78,26.45-.88,2.23-.22,3.72,1.72,5.73,2.31,3.2.43,6.53-.45,9.66.57,2.09.72,3.15,2.94,3.44,5,.36,3.49-.22,7,.36,10.5,3.88,1.15,8.13-.31,12,.85,4,2.36,4.94,8.66,1.65,12a5,5,0,0,1-3.58,1.92c-3.39.14-6.8,0-10.17.45-.2,2.77-.24,5.56-.21,8.34.06,13.71-.09,27.41.07,41.16,3.89.57,7.8,0,11.74.47,5.73,2.08,5.66,12.06-.31,13.8-3.7.36-7.47-.08-11.13.78-1,5.3.36,10.83-.66,16.15-.84,3.56-4.49,5.49-7.94,5.4-15.74.09-31.48,0-47.22.07-3,0-5.59,2-8.61,1.59-2.52-.09-4.56-2.1-7.13-1.95-15.5,0-31,0-46.52,0-4,.2-8.41-2.87-8.36-7.13-.15-4.86.18-9.72-.21-14.56-3.36-.3-6.73-.09-10.09-.31-2.39-.13-4.28-2.11-5.29-4.12" transform="translate(-69.42 -15)"/><path class="a" d="M191.25,166.55a24.2,24.2,0,0,1-.93,6c-3.7.06-7.33-.78-11-1-6.89-.68-13.82-.4-20.72-.42-3.14,0-7,.92-9.39-1.7-1.12-1.67-1.15-3.83-1.19-5.78,0-28.39,0-56.79,0-85.17.21-1.44,0-3.94,1.88-4.26h0c5.9-1,11.92-.4,17.87-.22,6,.65,12.1,1.08,17.83,3.15a14,14,0,0,1,4.65,2.51,8.85,8.85,0,0,1,.93,4.52" transform="translate(-69.42 -15)"/><path class="a" d="M193.91,83.25c.18-1.74.83-3.6,2.55-4.29h0c7.28-3.8,15.68-3.83,23.66-4.48,5.44.22,11-.63,16.32.65,1,2.93.64,6.08.71,9.16v80.18c-.13,2-.2,4.44-1.85,5.87-1.37,1.28-3.36,1.31-5.12,1.37-6.46,0-12.91,0-19.37,0-5.34-.18-10.59,1-15.87,1.55-.29-.74-.61-1.46-.86-2.2" transform="translate(-69.42 -15)"/><path class="d" d="M133.65,77.93c1-1.82,3.39-.77,5-1.09-1,1-2,2.07-3,3.08q0,51.54,0,103c15.68-.05,31.36,0,47,0,.16,1.07.36,2.07.5,3.15-15.37-.06-30.76,0-46.13-.05a3.47,3.47,0,0,1-3.73-3.74c-.08-6,.07-11.91.08-17.85-4.77,0-9.53-.25-14.31-.12a4.44,4.44,0,0,1-.67-6.38c5-.36,10,0,14.94-.17,0-19.25,0-38.51,0-57.78-4.8-.08-9.62,0-14.39-.49-2-1.32-1.6-4.3-.5-6.11,4.94-.48,9.92-.08,14.87-.18.19-5.12-.33-10.2.31-15.29Z" transform="translate(-69.42 -15)"/><path class="d" d="M246.14,77.1a33.57,33.57,0,0,1,4.59.28,4.64,4.64,0,0,1,.93,3.27c0,4.31,0,8.59,0,12.89,4.77.07,9.57-.22,14.31.13,2.22,1.29,1.65,4.66.15,6.35-4.84.09-9.66.45-14.49.47V158c4.29.08,8.58,0,12.88,0,3.8-1,4.15,6.23.65,6.42-4.51.33-9,.41-13.53.49,0,5.53,0,11.09,0,16.6,0,1.36,0,2.91-1,3.95-1.33,1.05-3.12,1.07-4.73,1.09-14.89,0-29.77,0-44.65,0l.6-3.28c15.85,0,31.71,0,47.55,0-.08-34.34,0-68.7,0-103C248.29,79.22,247.22,78.15,246.14,77.1Z" transform="translate(-69.42 -15)"/><path class="d" d="M139.69,83.55c-.12-2.84,3-4.14,4.67-6q0,44.13,0,88.26c0,2.58.72,5.37,2.79,7a9.57,9.57,0,0,0,6.45,2c10.72,0,21.56-.73,32.21,1.18-.7.87-1.4,1.74-2.09,2.62q-22,0-44,0-.12-47.53-.07-95.15Z" transform="translate(-69.42 -15)"/><path class="d" d="M240.39,77.72c1.61,1.43,3.22,2.86,4.79,4.35v97.27c-14.65-.1-29.3,0-44-.07-.62-1-1.24-2-1.85-3.05,4.3-.23,8.59-.69,12.88-1,6.22-.12,12.44-.11,18.69.1,2.85.07,6-.59,7.9-2.89,1.61-1.78,1.58-4.31,1.62-6.55-.09-29.37,0-58.79,0-88.14Z" transform="translate(-69.42 -15)"/><path class="d" d="M189.7,178.31a5.32,5.32,0,0,1,7.59,2.56c2.16,3.79-2.4,8.77-6.43,7.16-4.47-1-5.21-7.58-1.2-9.72Z" transform="translate(-69.42 -15)"/><path d="M181,129.81c-4.53,0-4.64.11-4.64,3.2V148.9c0,10.26.66,11.26,5.63,11.92l3.53.44c.88.66.88,3.2,0,3.86-6.29-.22-11.81-.33-16.77-.33-5.3,0-10.82.11-16.44.33-.89-.66-.89-3.2,0-3.86l2.64-.33c5.08-.66,5.63-1.77,5.63-12V107.85c0-10.26-.55-11.37-5.63-12l-2.64-.33c-.89-.66-.89-3.2,0-3.86,5.4.22,11.14.33,16.44.33,5,0,10.48-.11,15.34-.33.88.66.88,3.2,0,3.86l-2.32.33c-4.75.66-5.41,1.77-5.41,12v12.8c0,3.2.11,3.31,4.64,3.31h23c4.63,0,4.63-.11,4.63-3.31v-12.8c0-10.26-.55-11.15-5.62-11.92l-3-.44c-.89-.66-.89-3.2,0-3.86,6.07.22,11.47.33,16.77.33s10.48-.11,15.56-.33c.88.66.88,3.2,0,3.86l-2.21.33c-5.07.77-5.73,1.77-5.73,12V148.9c0,10.26.66,11,5.73,11.92l2.65.44c.88.66.88,3.2,0,3.86-5.52-.22-10.92-.33-16-.33q-8.28,0-16.22.33c-.88-.66-.88-3.2,0-3.86l2.43-.33c5.07-.66,5.62-1.77,5.62-12V133c0-3.09,0-3.2-4.63-3.2Z" transform="translate(-69.42 -15)"/><path class="e" d="M356.67,830.17c13.21-48.89,30.59-116.32,43.71-165.23,2.62-9.75,6.56-19.32,5.1-29.82-.31-2.27-.26-4.88-3.38-4.14-4.76,1.11-10.62-3.29-14.34,2.84a1.48,1.48,0,0,0-.08.49c-1,4.9-2,9.8-3,14.7Q371,717.62,357.22,786.24" transform="translate(-69.42 -15)"/><path class="e" d="M407.46,408.61c-.57-.73-1.6-1.74-2.27-1.64-4.43.68-9.07,1.06-13.12,2.76-1.86.79-2.59,4.34-3.78,6.67-1.5,3-2.92,6-4.43,8.92-1.09,2.12-2.26,4.19-3.67,6.77h45.53C419.47,424,413.5,416.3,407.46,408.61Z" transform="translate(-69.42 -15)"/><path class="e" d="M434.75,630.87c-14.82,0-15.18.31-14.28,15.21q2.83,46.93,5.79,93.86c1.52,24.79,3.08,49.58,4.47,74.39.2,3.54,1.2,5.16,5,4.9a82.66,82.66,0,0,1,12.49,0c4.4.38,5.68-1.27,5.89-5.58q4.33-88.68,9-177.34c.08-1.61,0-3.22,0-5.45Z" transform="translate(-69.42 -15)"/><path d="M610.2,526.24c12.56,7.42,24.77,16.06,37.24,23.65,1.49.9,3,1.7,4.81,2.68V423.78c-14.71,9-28.79,17.58-42.93,26.09-1.8,1.08-3.93,2.25-5.93,2.28-12.12.21-24.24.11-37,.11V433H548.62l-.57-2.1a17.47,17.47,0,0,0,3.82-2.35c16.79-16.18,26.43-36,28.38-59.14,3.69-43.91-21.49-83.1-63.3-97.1-35.38-11.84-67.11-3.79-94.35,21.53-14,13-22.38,29.26-26.75,47.73-.32,1.38-.78,3.13-1.8,3.9-4.1,3.08-10.72,1.71-13.62-2.53-17.89-26.15-50.8-39.28-81.24-31.1-32.95,8.84-52.63,30.71-58.62,64.4-6.12,34.4,16.52,72.3,49.58,83.54,7.69,2.62,7.69,2.62,6.72,11.77-1.8.25-3.72.5-5.64.8-10,1.57-18.28-4-27.34-6.42-4.75-1.26-9.89-1-15.85-1.55,6.64,13.95,12.56,26.43,18.52,38.9,2.09,4.37,6.84,4.95,10.23,1.22.89-1,1.32-2.37,2.24-3.3s2.25-2.27,3.46-2.34c4.77-.27,9.57-.11,14.83-.11v95.72h23.81c-.83,7.86-1.41,15.2-2.57,22.44-.2,1.28-2.66,2.83-4.3,3.16-15.86,3.18-31.83,5.84-47.63,9.3-5.55,1.22-9.86,0-14.65-2.37a18.21,18.21,0,0,0-10.32-1.93c-13,2.06-25.9,4.84-38.86,7.23-2.56.48-3.9,1.36-3.47,4.24,1.12,7.4,2.08,14.82,3.2,23,2.32-.31,4.13-.48,5.9-.82,11.47-2.19,22.88-4.7,34.41-6.52,5.3-.83,9.51-2.78,12.69-7,3.43-4.54,8.11-6.34,13.59-7.45,17.32-3.5,34.53-7.55,51.85-11.11,3.41-.7,4.73-2.26,5.19-5.49.9-6.44,2.34-12.82,3-19.28.5-4.73,4.9-6.77,7.36-7,10.06-.86,20.23-.36,31.12-.36V624c0,7.11,0,7.11,6.81,8.07.27,0,.48.42.95.86-.15,1.12-.26,2.43-.52,3.71-11.56,57.56-23.63,119-35.18,176.53l10.14,7.92,37.55-185.66a4.54,4.54,0,0,1,4.48-3.63l10,.08c3.7-.11,3.07,1.87,3.39,4.13,1.45,10.51-2.49,20.08-5.11,29.83L357.55,827l9.3,7.42,40.22-147.52a3.74,3.74,0,0,1,1.46,2.79q2.82,45,5.6,89.94c2.14,34.65,3.91,64.65,6.14,99.29l14.54,2.14q-1.38-18-2.19-36c-.07-1.52,1.25-4.41,2.07-4.46,5.75-.4,11.54-.21,17.7-.21-.53,11.44-.79,25.85-1.33,37.49l14.5-7.25c.77-8.3,1.49-25.26,1.89-33.58q4-80.76,7.81-161.52a33.27,33.27,0,0,1,.67-3.93,5.65,5.65,0,0,1,2.09,3.2c6.37,23.5,13,46.94,19,70.52,6.94,27,14,58.79,21.77,86.56l11.63-9.75c-14.73-54.06-31.62-116.44-46.26-170.53-1.72-6.36-3.32-12.75-5.17-19.83,6.85,0,12.84-.22,18.79.18,1.26.09,3.14,2.3,3.45,3.79q15.16,74.78,30,149.62c1.76,8.78,4.32,21.87,6.27,31.52,2.74-2.15,6.08-4.05,8.25-5.5,2.84-1.89,2.84-1.89.7-11.72-2.13-8.91-3.63-18-5.44-27Q528,708,515,643.25c-.71-3.53-1.25-7.09-2-11.2,6.82.85,7.09-2.85,6.94-7.59-.28-9.78-.08-19.57-.08-29.92h45.76V524.26l9.78,0c.91-1.85,1.81-3.69,2.75-5.53M384.52,649.94,380,433c1.4-2.59,2.58-4.65,3.66-6.77,1.51-3,2.93-6,4.44-8.92,1.18-2.33,1.91-5.88,3.78-6.67,4.05-1.71,8.68-2.08,13.12-2.76.66-.11,1.69.91,2.26,1.64,6,7.69,12,15.42,18.26,23.48ZM462.9,637.26q-4.51,88.66-9,177.34c-.21,4.31-1.49,6-5.89,5.58a82.66,82.66,0,0,0-12.49,0c-3.8.26-4.81-1.37-5-4.91-1.39-24.8-2.95-49.59-4.48-74.39Q423.19,694,420.28,647c-.89-14.9-.54-15.21,14.29-15.21h28.34C462.91,634,463,635.65,462.9,637.26Z" transform="translate(-69.42 -15)"/><path class="a" d="M652.25,552.57l-42-26.33c-4.26-5.5-6.36-8.22-10.56-13.58-.57-.73-4.35-3.39-5-3.28-4.44.68-8.7,1.16-12.75,2.87-1.87.79-2.32,3.2-3.51,5.52l-2.93,6.47-9.78,0v70.28" transform="translate(-69.42 -15)"/><line class="e" x1="455.71" y1="68.68" x2="455.9" y2="156.47"/><line class="e" x1="623.94" y1="69.12" x2="624.13" y2="156.9"/><line class="e" x1="287.48" y1="68.25" x2="287.67" y2="156.04"/><line class="e" x1="124.49" y1="68.25" x2="124.68" y2="156.04"/><path class="a" d="M519.9,594.54" transform="translate(-69.42 -15)"/><line class="f" x1="9.11" y1="211.6" x2="730.58" y2="211.6"/></svg>