<?xml version="1.0" encoding="utf-8"?>
<!-- Generator: Adobe Illustrator 22.1.0, SVG Export Plug-In . SVG Version: 6.00 Build 0)  -->
<svg version="1.1" xmlns="http://www.w3.org/2000/svg" xmlns:xlink="http://www.w3.org/1999/xlink" x="0px" y="0px"
	 viewBox="0 0 900 900" enable-background="new 0 0 900 900" xml:space="preserve">
<g id="Layer_3">
	<path d="M809,15L809,15c0,92.6,0.2,129.5,0,222.1c0.3,56.4-11.9,145.8-21.4,186.2c-16.7,71.9-40.1,142.8-76,207.5
		c-33.2,59.8-79.2,111.4-129.7,157c-42.7,38.2-93.2,74.6-142.6,103.6l0,0l0,0c-49.4-29.1-99.9-65.5-142.6-103.6
		c-50.5-45.6-96.5-97.3-129.7-157c-35.9-64.7-59.3-135.6-76-207.5c-9.5-40.4-21.7-129.8-21.4-186.2c-0.1-92.6,0-129.5,0-222.1l0,0
		H809z"/>
</g>
<g id="Layer_2">
	<path fill="#FFFFFF" d="M799.8,25.9L799.8,25.9c0,90.3,0.2,126.2,0,216.6c0.3,55-11.6,142.2-20.9,181.6
		c-16.3,70.1-39.1,139.3-74.1,202.3c-32.4,58.3-77.2,108.6-126.5,153.1c-41.7,37.2-90.9,72.7-139.1,101.1l0,0l0,0
		c-48.2-28.3-97.4-63.8-139.1-101.1c-49.3-44.5-94.1-94.9-126.5-153.1c-35-63.1-57.9-132.2-74.1-202.3
		c-9.2-39.4-21.2-126.6-20.9-181.6c-0.1-90.3,0-126.3,0-216.6l0,0H799.8z"/>
</g>
<g id="Layer_1">
	<path fill="#C4242B" d="M78.5,23.5H800c0,67.7,0,135.4,0,203.1c-240.5,0-481,0-721.5,0C78.5,158.9,78.6,91.2,78.5,23.5L78.5,23.5z"
		/>
	<path fill="#090909" d="M276.9,164.2c-0.9-3.6-0.4-8.6,3.6-10.1c3.9-0.9,7.9-0.3,11.8-0.5c0.5-11.4,0.1-22.8,0.2-34.2
		c-0.1-5.1,0.3-10.2-0.3-15.3c-3.8-0.2-7.6-0.2-11.3-0.7c-5.9-2-5.7-12,0.1-13.9c3.7-0.6,7.6-0.1,11.3-0.4c0.4-3.7,0.1-7.5,0.3-11.3
		c0.3-3,3.2-5.2,6.1-5.1c3.5-0.3,7.4,0.5,10.4-1.7h0C318,69.8,327,70.6,336,71c6.8,0.9,13.8,2.1,19.8,5.7c5.4-2.9,11.4-4.3,17.4-4.9
		c8.7-1.5,17.6-0.8,26.5-0.9c2.2-0.2,3.7,1.7,5.7,2.3c3.2,0.4,6.5-0.5,9.7,0.6c2.1,0.7,3.1,2.9,3.4,5c0.4,3.5-0.2,7,0.4,10.5
		c3.9,1.1,8.1-0.3,12,0.8c4,2.4,4.9,8.7,1.6,12c-0.9,1-2.1,1.9-3.6,1.9c-3.4,0.1-6.8,0-10.2,0.5c-0.2,2.8-0.2,5.6-0.2,8.3
		c0.1,13.7-0.1,27.4,0.1,41.2c3.9,0.6,7.8,0,11.7,0.5c5.7,2.1,5.7,12.1-0.3,13.8c-3.7,0.4-7.5-0.1-11.1,0.8
		c-1,5.3,0.4,10.8-0.7,16.2c-0.8,3.6-4.5,5.5-7.9,5.4c-15.7,0.1-31.5,0-47.2,0.1c-3-0.1-5.6,2-8.6,1.6c-2.5-0.1-4.6-2.1-7.1-1.9
		c-15.5,0-31,0-46.5,0c-4,0.2-8.4-2.9-8.4-7.1c-0.2-4.9,0.2-9.7-0.2-14.6c-3.4-0.3-6.7-0.1-10.1-0.3
		C279.8,168.2,277.9,166.3,276.9,164.2"/>
	<path fill="#FFFFFF" d="M354.2,166.6c0.1,2.1-0.5,4-0.9,6c-3.7,0.1-7.3-0.8-11-1c-6.9-0.7-13.8-0.4-20.7-0.4c-3.1,0-7,0.9-9.4-1.7
		c-1.1-1.7-1.1-3.8-1.2-5.8c0-28.4,0-56.8,0-85.2c0.2-1.4,0-3.9,1.9-4.3h0c5.9-1,11.9-0.4,17.9-0.2c6,0.6,12.1,1.1,17.8,3.1
		c1.7,0.6,3.4,1.3,4.7,2.5c0.8,1.4,0.9,3,0.9,4.5"/>
	<path fill="#FFFFFF" d="M356.9,83.3c0.2-1.7,0.8-3.6,2.6-4.3h0c7.3-3.8,15.7-3.8,23.7-4.5c5.4,0.2,11-0.6,16.3,0.6
		c1,2.9,0.6,6.1,0.7,9.2c0,26.7,0,53.5,0,80.2c-0.1,2-0.2,4.4-1.8,5.9c-1.4,1.3-3.4,1.3-5.1,1.4c-6.5,0-12.9,0-19.4,0
		c-5.3-0.2-10.6,1-15.9,1.5c-0.3-0.7-0.6-1.5-0.9-2.2"/>
	<path fill="#AE8732" d="M296.6,77.9c1-1.8,3.4-0.8,5-1.1c-1,1-2,2.1-3,3.1c0,34.4,0,68.7,0,103c15.7-0.1,31.4,0,47,0
		c0.2,1.1,0.4,2.1,0.5,3.1c-15.4-0.1-30.8,0-46.1,0c-2.1,0.2-3.9-1.7-3.7-3.7c-0.1-5.9,0.1-11.9,0.1-17.9c-4.8,0-9.5-0.2-14.3-0.1
		c-1.9-1.7-2.4-4.4-0.7-6.4c5-0.4,10,0,14.9-0.2c0-19.3,0-38.5,0-57.8c-4.8-0.1-9.6,0-14.4-0.5c-2-1.3-1.6-4.3-0.5-6.1
		c4.9-0.5,9.9-0.1,14.9-0.2C296.5,88.1,296,83,296.6,77.9L296.6,77.9z"/>
	<path fill="#AE8732" d="M409.1,77.1c1.5,0.1,3.1,0,4.6,0.3c0.8,0.9,1,2.1,0.9,3.3c0,4.3,0,8.6,0,12.9c4.8,0.1,9.6-0.2,14.3,0.1
		c2.2,1.3,1.6,4.7,0.1,6.3c-4.8,0.1-9.7,0.5-14.5,0.5c0,19.2,0,38.4,0,57.6c4.3,0.1,8.6-0.1,12.9,0c3.8-1,4.2,6.2,0.6,6.4
		c-4.5,0.3-9,0.4-13.5,0.5c0,5.5,0,11.1,0,16.6c0,1.4,0,2.9-1,3.9c-1.3,1.1-3.1,1.1-4.7,1.1c-14.9,0-29.8,0-44.6,0
		c0.2-1.1,0.4-2.2,0.6-3.3c15.9,0,31.7,0,47.6,0c-0.1-34.3,0-68.7-0.1-103.1C411.3,79.2,410.2,78.1,409.1,77.1z"/>
	<path fill="#AE8732" d="M302.7,83.5c-0.1-2.8,3-4.1,4.7-5.9c0,29.4,0,58.8,0,88.3c0,2.6,0.7,5.4,2.8,7c1.8,1.5,4.2,2.1,6.4,2
		c10.7,0,21.6-0.7,32.2,1.2c-0.7,0.9-1.4,1.7-2.1,2.6c-14.6,0-29.3,0-44,0C302.7,147,302.7,115.3,302.7,83.5L302.7,83.5z"/>
	<path fill="#AE8732" d="M403.4,77.7c1.6,1.4,3.2,2.9,4.8,4.4c0,32.4,0,64.9,0,97.3c-14.7-0.1-29.3,0-44-0.1c-0.6-1-1.2-2-1.8-3
		c4.3-0.2,8.6-0.7,12.9-1c6.2-0.1,12.4-0.1,18.7,0.1c2.8,0.1,6-0.6,7.9-2.9c1.6-1.8,1.6-4.3,1.6-6.6
		C403.4,136.5,403.5,107.1,403.4,77.7L403.4,77.7z"/>
	<path fill="#AE8732" d="M352.7,178.3c2.6-1.7,6.5-0.4,7.6,2.6c2.2,3.8-2.4,8.8-6.4,7.2C349.4,187,348.6,180.4,352.7,178.3
		L352.7,178.3z"/>
	<g>
		<path d="M326.3,107.9c0-10.3-0.7-10.9-5.6-11.9l-2.8-0.6c-0.9-0.7-1-3.1,0.2-3.8c5.3,0.2,10.8,0.3,16.1,0.3
			c5.4,0,10.8-0.1,16.1-0.3c0.9,0.7,0.9,3.1,0,3.8l-2.6,0.4c-5,0.9-5.6,1.8-5.6,12v25.5c0,12.9,1.4,27.1,18.2,27.1
			c14.1,0,18.4-12.4,18.4-27.5v-13.4c0-8.9-0.4-17.3-1.7-20.2c-1-2.3-3.4-3-6.4-3.5l-3-0.6c-0.9-0.9-0.7-3.1,0-3.8
			c6,0.2,10.3,0.3,14.8,0.3c4.1,0,8.2-0.1,12.4-0.3c0.7,0.7,0.9,2.9,0,3.8l-2,0.4c-2.9,0.7-5,1.3-6,3.6c-1.2,2.9-1.7,11.3-1.7,20.2
			V132c0,10.4-1,19.9-7.1,26.6c-4.9,5.2-12.9,7.9-21.8,7.9c-8.4,0-15.9-1.3-21.8-6.2c-5.7-4.7-8.2-12.9-8.2-24.9V107.9z"/>
	</g>
	<path fill="#090909" d="M445.1,164.7c-0.9-3.6-0.4-8.6,3.6-10.1c3.9-0.9,7.9-0.3,11.8-0.5c0.5-11.4,0.1-22.8,0.2-34.2
		c-0.1-5.1,0.3-10.2-0.3-15.3c-3.8-0.2-7.6-0.2-11.3-0.7c-5.9-2-5.7-12,0.1-13.9c3.7-0.6,7.6-0.1,11.3-0.4c0.4-3.7,0.1-7.5,0.3-11.3
		c0.3-3,3.2-5.2,6.1-5.1c3.5-0.3,7.4,0.5,10.4-1.7h0c8.9-1.4,17.9-0.5,26.9-0.2c6.8,0.9,13.8,2.1,19.8,5.7
		c5.4-2.9,11.4-4.3,17.4-4.9c8.7-1.5,17.6-0.8,26.5-0.9c2.2-0.2,3.7,1.7,5.7,2.3c3.2,0.4,6.5-0.5,9.7,0.6c2.1,0.7,3.1,2.9,3.4,5
		c0.4,3.5-0.2,7,0.4,10.5c3.9,1.1,8.1-0.3,12,0.8c4,2.4,4.9,8.7,1.6,12c-0.9,1-2.1,1.9-3.6,1.9c-3.4,0.1-6.8,0-10.2,0.5
		c-0.2,2.8-0.2,5.6-0.2,8.3c0.1,13.7-0.1,27.4,0.1,41.2c3.9,0.6,7.8,0,11.7,0.5c5.7,2.1,5.7,12.1-0.3,13.8
		c-3.7,0.4-7.5-0.1-11.1,0.8c-1,5.3,0.4,10.8-0.7,16.2c-0.8,3.6-4.5,5.5-7.9,5.4c-15.7,0.1-31.5,0-47.2,0.1c-3-0.1-5.6,2-8.6,1.6
		c-2.5-0.1-4.6-2.1-7.1-1.9c-15.5,0-31,0-46.5,0c-4,0.2-8.4-2.9-8.4-7.1c-0.2-4.9,0.2-9.7-0.2-14.6c-3.4-0.3-6.7-0.1-10.1-0.3
		C448,168.7,446.1,166.7,445.1,164.7"/>
	<path fill="#FFFFFF" d="M522.5,167c0.1,2.1-0.5,4-0.9,6c-3.7,0.1-7.3-0.8-11-1c-6.9-0.7-13.8-0.4-20.7-0.4c-3.1,0-7,0.9-9.4-1.7
		c-1.1-1.7-1.1-3.8-1.2-5.8c0-28.4,0-56.8,0-85.2c0.2-1.4,0-3.9,1.9-4.3h0c5.9-1,11.9-0.4,17.9-0.2c6,0.6,12.1,1.1,17.8,3.1
		c1.7,0.6,3.4,1.3,4.7,2.5c0.8,1.4,0.9,3,0.9,4.5"/>
	<path fill="#FFFFFF" d="M525.1,83.7c0.2-1.7,0.8-3.6,2.6-4.3h0c7.3-3.8,15.7-3.8,23.7-4.5c5.4,0.2,11-0.6,16.3,0.6
		c1,2.9,0.6,6.1,0.7,9.2c0,26.7,0,53.5,0,80.2c-0.1,2-0.2,4.4-1.8,5.9c-1.4,1.3-3.4,1.3-5.1,1.4c-6.5,0-12.9,0-19.4,0
		c-5.3-0.2-10.6,1-15.9,1.5c-0.3-0.7-0.6-1.5-0.9-2.2"/>
	<path fill="#AE8732" d="M464.9,78.4c1-1.8,3.4-0.8,5-1.1c-1,1-2,2.1-3,3.1c0,34.4,0,68.7,0,103c15.7-0.1,31.4,0,47,0
		c0.2,1.1,0.4,2.1,0.5,3.1c-15.4-0.1-30.8,0-46.1,0c-2.1,0.2-3.9-1.7-3.7-3.7c-0.1-5.9,0.1-11.9,0.1-17.9c-4.8,0-9.5-0.2-14.3-0.1
		c-1.9-1.7-2.4-4.4-0.7-6.4c5-0.4,10,0,14.9-0.2c0-19.3,0-38.5,0-57.8c-4.8-0.1-9.6,0-14.4-0.5c-2-1.3-1.6-4.3-0.5-6.1
		c4.9-0.5,9.9-0.1,14.9-0.2C464.8,88.5,464.3,83.4,464.9,78.4L464.9,78.4z"/>
	<path fill="#AE8732" d="M577.4,77.5c1.5,0.1,3.1,0,4.6,0.3c0.8,0.9,1,2.1,0.9,3.3c0,4.3,0,8.6,0,12.9c4.8,0.1,9.6-0.2,14.3,0.1
		c2.2,1.3,1.6,4.7,0.1,6.3c-4.8,0.1-9.7,0.5-14.5,0.5c0,19.2,0,38.4,0,57.6c4.3,0.1,8.6-0.1,12.9,0c3.8-1,4.2,6.2,0.6,6.4
		c-4.5,0.3-9,0.4-13.5,0.5c0,5.5,0,11.1,0,16.6c0,1.4,0,2.9-1,3.9c-1.3,1.1-3.1,1.1-4.7,1.1c-14.9,0-29.8,0-44.6,0
		c0.2-1.1,0.4-2.2,0.6-3.3c15.9,0,31.7,0,47.6,0c-0.1-34.3,0-68.7-0.1-103.1C579.5,79.6,578.4,78.6,577.4,77.5z"/>
	<path fill="#AE8732" d="M470.9,84c-0.1-2.8,3-4.1,4.7-5.9c0,29.4,0,58.8,0,88.3c0,2.6,0.7,5.4,2.8,7c1.8,1.5,4.2,2.1,6.4,2
		c10.7,0,21.6-0.7,32.2,1.2c-0.7,0.9-1.4,1.7-2.1,2.6c-14.6,0-29.3,0-44,0C470.9,147.4,470.9,115.7,470.9,84L470.9,84z"/>
	<path fill="#AE8732" d="M571.6,78.1c1.6,1.4,3.2,2.9,4.8,4.4c0,32.4,0,64.9,0,97.3c-14.7-0.1-29.3,0-44-0.1c-0.6-1-1.2-2-1.8-3
		c4.3-0.2,8.6-0.7,12.9-1c6.2-0.1,12.4-0.1,18.7,0.1c2.8,0.1,6-0.6,7.9-2.9c1.6-1.8,1.6-4.3,1.6-6.6
		C571.6,136.9,571.7,107.5,571.6,78.1L571.6,78.1z"/>
	<path fill="#AE8732" d="M520.9,178.7c2.6-1.7,6.5-0.4,7.6,2.6c2.2,3.8-2.4,8.8-6.4,7.2C517.6,187.5,516.9,180.9,520.9,178.7
		L520.9,178.7z"/>
	<g>
		<path d="M519.5,121.5c0,3,0.1,3.3,3.1,3.3h8.5c5.8,0,7.1-0.8,8.2-6.2l0.6-2.6c0.8-1,3.5-0.9,4.2,0.1c-0.2,3.5-0.3,7.6-0.3,11.8
			c0,4.1,0.1,8.2,0.3,11.5c-0.7,1-3.4,1.1-4.2,0.1l-0.6-2.6c-1.1-5.3-2.3-6.2-8.2-6.2h-8.5c-3,0-3.1,0.3-3.1,3.3v14.9
			c0,10.3,0.7,11.1,5.6,11.8l4.1,0.6c0.8,0.7,0.8,3.2,0,3.9c-6.8-0.2-12.2-0.3-17.5-0.3c-5.1,0-10.6,0.1-17.2,0.3
			c-0.9-0.7-0.9-3.2,0-3.9l3.6-0.6c5-0.8,5.6-1.5,5.6-11.8v-41.1c0-10.3-0.7-11.3-5.6-12l-2.2-0.3c-1-0.7-1-3.4,0.2-3.9
			c4.7,0.2,10.3,0.3,15.6,0.3h23.2c7.1,0,13.4-0.1,14.9-0.3c0,1.9,0,9.8,0.2,17.2c-0.4,1.2-2.9,1.3-4.2,0.4
			c-1.2-4.5-2.1-7.2-3.2-8.6c-1.9-2.3-5.2-3.6-10.8-3.6h-8.6c-3.6,0-3.6,0.2-3.6,4.5V121.5z"/>
	</g>
	<path fill="#090909" d="M613.4,165.1c-0.9-3.6-0.4-8.6,3.6-10.1c3.9-0.9,7.9-0.3,11.8-0.5c0.5-11.4,0.1-22.8,0.2-34.2
		c-0.1-5.1,0.3-10.2-0.3-15.3c-3.8-0.2-7.6-0.2-11.3-0.7c-5.9-2-5.7-12,0.1-13.9c3.7-0.6,7.6-0.1,11.3-0.4c0.4-3.7,0.1-7.5,0.3-11.3
		c0.3-3,3.2-5.2,6.1-5.1c3.5-0.3,7.4,0.5,10.4-1.7h0c8.9-1.4,17.9-0.5,26.9-0.2c6.8,0.9,13.8,2.1,19.8,5.7
		c5.4-2.9,11.4-4.3,17.4-4.9c8.7-1.5,17.6-0.8,26.5-0.9c2.2-0.2,3.7,1.7,5.7,2.3c3.2,0.4,6.5-0.5,9.7,0.6c2.1,0.7,3.1,2.9,3.4,5
		c0.4,3.5-0.2,7,0.4,10.5c3.9,1.1,8.1-0.3,12,0.8c4,2.4,4.9,8.7,1.6,12c-0.9,1-2.1,1.9-3.6,1.9c-3.4,0.1-6.8,0-10.2,0.5
		c-0.2,2.8-0.2,5.6-0.2,8.3c0.1,13.7-0.1,27.4,0.1,41.2c3.9,0.6,7.8,0,11.7,0.5c5.7,2.1,5.7,12.1-0.3,13.8
		c-3.7,0.4-7.5-0.1-11.1,0.8c-1,5.3,0.4,10.8-0.7,16.2c-0.8,3.6-4.5,5.5-7.9,5.4c-15.7,0.1-31.5,0-47.2,0.1c-3-0.1-5.6,2-8.6,1.6
		c-2.5-0.1-4.6-2.1-7.1-1.9c-15.5,0-31,0-46.5,0c-4,0.2-8.4-2.9-8.4-7.1c-0.2-4.9,0.2-9.7-0.2-14.6c-3.4-0.3-6.7-0.1-10.1-0.3
		C616.3,169.1,614.4,167.1,613.4,165.1"/>
	<path fill="#FFFFFF" d="M690.7,167.4c0.1,2.1-0.5,4-0.9,6c-3.7,0.1-7.3-0.8-11-1c-6.9-0.7-13.8-0.4-20.7-0.4c-3.1,0-7,0.9-9.4-1.7
		c-1.1-1.7-1.1-3.8-1.2-5.8c0-28.4,0-56.8,0-85.2c0.2-1.4,0-3.9,1.9-4.3h0c5.9-1,11.9-0.4,17.9-0.2c6,0.6,12.1,1.1,17.8,3.1
		c1.7,0.6,3.4,1.3,4.7,2.5c0.8,1.4,0.9,3,0.9,4.5"/>
	<path fill="#FFFFFF" d="M693.4,84.1c0.2-1.7,0.8-3.6,2.6-4.3h0c7.3-3.8,15.7-3.8,23.7-4.5c5.4,0.2,11-0.6,16.3,0.6
		c1,2.9,0.6,6.1,0.7,9.2c0,26.7,0,53.5,0,80.2c-0.1,2-0.2,4.4-1.8,5.9c-1.4,1.3-3.4,1.3-5.1,1.4c-6.5,0-12.9,0-19.4,0
		c-5.3-0.2-10.6,1-15.9,1.5c-0.3-0.7-0.6-1.5-0.9-2.2"/>
	<path fill="#AE8732" d="M633.1,78.8c1-1.8,3.4-0.8,5-1.1c-1,1-2,2.1-3,3.1c0,34.4,0,68.7,0,103c15.7-0.1,31.4,0,47,0
		c0.2,1.1,0.4,2.1,0.5,3.1c-15.4-0.1-30.8,0-46.1,0c-2.1,0.2-3.9-1.7-3.7-3.7c-0.1-5.9,0.1-11.9,0.1-17.9c-4.8,0-9.5-0.2-14.3-0.1
		c-1.9-1.7-2.4-4.4-0.7-6.4c5-0.4,10,0,14.9-0.2c0-19.3,0-38.5,0-57.8c-4.8-0.1-9.6,0-14.4-0.5c-2-1.3-1.6-4.3-0.5-6.1
		c4.9-0.5,9.9-0.1,14.9-0.2C633,89,632.5,83.9,633.1,78.8L633.1,78.8z"/>
	<path fill="#AE8732" d="M745.6,78c1.5,0.1,3.1,0,4.6,0.3c0.8,0.9,1,2.1,0.9,3.3c0,4.3,0,8.6,0,12.9c4.8,0.1,9.6-0.2,14.3,0.1
		c2.2,1.3,1.6,4.7,0.1,6.3c-4.8,0.1-9.7,0.5-14.5,0.5c0,19.2,0,38.4,0,57.6c4.3,0.1,8.6-0.1,12.9,0c3.8-1,4.2,6.2,0.6,6.4
		c-4.5,0.3-9,0.4-13.5,0.5c0,5.5,0,11.1,0,16.6c0,1.4,0,2.9-1,3.9c-1.3,1.1-3.1,1.1-4.7,1.1c-14.9,0-29.8,0-44.6,0
		c0.2-1.1,0.4-2.2,0.6-3.3c15.9,0,31.7,0,47.6,0c-0.1-34.3,0-68.7-0.1-103.1C747.7,80.1,746.7,79,745.6,78z"/>
	<path fill="#AE8732" d="M639.1,84.4c-0.1-2.8,3-4.1,4.7-5.9c0,29.4,0,58.8,0,88.3c0,2.6,0.7,5.4,2.8,7c1.8,1.5,4.2,2.1,6.4,2
		c10.7,0,21.6-0.7,32.2,1.2c-0.7,0.9-1.4,1.7-2.1,2.6c-14.6,0-29.3,0-44,0C639.1,147.9,639.1,116.2,639.1,84.4L639.1,84.4z"/>
	<path fill="#AE8732" d="M739.8,78.6c1.6,1.4,3.2,2.9,4.8,4.4c0,32.4,0,64.9,0,97.3c-14.7-0.1-29.3,0-44-0.1c-0.6-1-1.2-2-1.8-3
		c4.3-0.2,8.6-0.7,12.9-1c6.2-0.1,12.4-0.1,18.7,0.1c2.8,0.1,6-0.6,7.9-2.9c1.6-1.8,1.6-4.3,1.6-6.6
		C739.8,137.4,739.9,107.9,739.8,78.6L739.8,78.6z"/>
	<path fill="#AE8732" d="M689.1,179.2c2.6-1.7,6.5-0.4,7.6,2.6c2.2,3.8-2.4,8.8-6.4,7.2C685.8,187.9,685.1,181.3,689.1,179.2
		L689.1,179.2z"/>
	<g>
		<path d="M682.4,135.8c-2.6,0-3,0.1-3.6,2.2l-4.3,12.8c-0.7,2.2-0.8,3.1-0.8,4c0,0.7,1.4,1.3,4.5,1.9l3.3,0.6
			c0.7,0.8,0.9,3.3-0.2,3.9c-3.9-0.2-7.8-0.2-12.5-0.3c-3.8,0-6.3,0.3-11.4,0.3c-1.2-0.7-1.1-3-0.3-3.9l3-0.3
			c2.6-0.3,4.9-1.2,6.7-5.5c1.9-4.4,4-9.7,7-17.7l10-26.9c2.5-7,4.4-10.8,4.1-14c5.3-1.2,9.4-6.6,9.6-6.6c1.4,0,2.1,0.6,2.5,2.2
			c0.9,3.2,2.2,7.3,5,15.1l15,43.3c2.3,6.6,3.3,9.2,7.4,9.8l4.2,0.7c0.7,0.6,0.9,3.2-0.1,3.9c-5.3-0.2-11.3-0.3-17-0.3
			c-5.5,0-9.8,0.1-14.9,0.3c-1.2-0.7-1.4-3-0.2-3.9l3.5-0.6c2.5-0.4,3-1.2,3-1.9c0-0.8-0.8-3.4-2.1-7.5l-3-9.5c-0.6-1.8-1.4-2-5.3-2
			H682.4z M695,129.9c2.5,0,3.1-0.3,2.2-3.2l-2.9-8.9c-1.5-4.7-3.5-10.7-4.5-13c-0.9,2.5-3.1,8.5-4.7,13.6l-2.8,8.3
			c-1,3-0.4,3.3,2.3,3.3H695z"/>
	</g>
	<path fill="#090909" d="M113.9,164.2c-0.9-3.6-0.4-8.6,3.6-10.1c3.9-0.9,7.9-0.3,11.8-0.5c0.5-11.4,0.1-22.8,0.2-34.2
		c-0.1-5.1,0.3-10.2-0.3-15.3c-3.8-0.2-7.6-0.2-11.3-0.7c-5.9-2-5.7-12,0.1-13.9c3.7-0.6,7.6-0.1,11.3-0.4c0.4-3.7,0.1-7.5,0.3-11.3
		c0.3-3,3.2-5.2,6.1-5.1c3.5-0.3,7.4,0.5,10.4-1.7h0c8.9-1.4,17.9-0.5,26.9-0.2c6.8,0.9,13.8,2.1,19.8,5.7
		c5.4-2.9,11.4-4.3,17.4-4.9c8.7-1.5,17.6-0.8,26.5-0.9c2.2-0.2,3.7,1.7,5.7,2.3c3.2,0.4,6.5-0.5,9.7,0.6c2.1,0.7,3.1,2.9,3.4,5
		c0.4,3.5-0.2,7,0.4,10.5c3.9,1.1,8.1-0.3,12,0.8c4,2.4,4.9,8.7,1.6,12c-0.9,1-2.1,1.9-3.6,1.9c-3.4,0.1-6.8,0-10.2,0.5
		c-0.2,2.8-0.2,5.6-0.2,8.3c0.1,13.7-0.1,27.4,0.1,41.2c3.9,0.6,7.8,0,11.7,0.5c5.7,2.1,5.7,12.1-0.3,13.8
		c-3.7,0.4-7.5-0.1-11.1,0.8c-1,5.3,0.4,10.8-0.7,16.2c-0.8,3.6-4.5,5.5-7.9,5.4c-15.7,0.1-31.5,0-47.2,0.1c-3-0.1-5.6,2-8.6,1.6
		c-2.5-0.1-4.6-2.1-7.1-1.9c-15.5,0-31,0-46.5,0c-4,0.2-8.4-2.9-8.4-7.1c-0.2-4.9,0.2-9.7-0.2-14.6c-3.4-0.3-6.7-0.1-10.1-0.3
		C116.8,168.2,114.9,166.3,113.9,164.2"/>
	<path fill="#FFFFFF" d="M191.3,166.6c0.1,2.1-0.5,4-0.9,6c-3.7,0.1-7.3-0.8-11-1c-6.9-0.7-13.8-0.4-20.7-0.4c-3.1,0-7,0.9-9.4-1.7
		c-1.1-1.7-1.1-3.8-1.2-5.8c0-28.4,0-56.8,0-85.2c0.2-1.4,0-3.9,1.9-4.3h0c5.9-1,11.9-0.4,17.9-0.2c6,0.6,12.1,1.1,17.8,3.1
		c1.7,0.6,3.4,1.3,4.7,2.5c0.8,1.4,0.9,3,0.9,4.5"/>
	<path fill="#FFFFFF" d="M193.9,83.3c0.2-1.7,0.8-3.6,2.6-4.3h0c7.3-3.8,15.7-3.8,23.7-4.5c5.4,0.2,11-0.6,16.3,0.6
		c1,2.9,0.6,6.1,0.7,9.2c0,26.7,0,53.5,0,80.2c-0.1,2-0.2,4.4-1.8,5.9c-1.4,1.3-3.4,1.3-5.1,1.4c-6.5,0-12.9,0-19.4,0
		c-5.3-0.2-10.6,1-15.9,1.5c-0.3-0.7-0.6-1.5-0.9-2.2"/>
	<path fill="#AE8732" d="M133.7,77.9c1-1.8,3.4-0.8,5-1.1c-1,1-2,2.1-3,3.1c0,34.4,0,68.7,0,103c15.7-0.1,31.4,0,47,0
		c0.2,1.1,0.4,2.1,0.5,3.1c-15.4-0.1-30.8,0-46.1,0c-2.1,0.2-3.9-1.7-3.7-3.7c-0.1-5.9,0.1-11.9,0.1-17.9c-4.8,0-9.5-0.2-14.3-0.1
		c-1.9-1.7-2.4-4.4-0.7-6.4c5-0.4,10,0,14.9-0.2c0-19.3,0-38.5,0-57.8c-4.8-0.1-9.6,0-14.4-0.5c-2-1.3-1.6-4.3-0.5-6.1
		c4.9-0.5,9.9-0.1,14.9-0.2C133.6,88.1,133,83,133.7,77.9L133.7,77.9z"/>
	<path fill="#AE8732" d="M246.1,77.1c1.5,0.1,3.1,0,4.6,0.3c0.8,0.9,1,2.1,0.9,3.3c0,4.3,0,8.6,0,12.9c4.8,0.1,9.6-0.2,14.3,0.1
		c2.2,1.3,1.6,4.7,0.1,6.3c-4.8,0.1-9.7,0.5-14.5,0.5c0,19.2,0,38.4,0,57.6c4.3,0.1,8.6-0.1,12.9,0c3.8-1,4.2,6.2,0.6,6.4
		c-4.5,0.3-9,0.4-13.5,0.5c0,5.5,0,11.1,0,16.6c0,1.4,0,2.9-1,3.9c-1.3,1.1-3.1,1.1-4.7,1.1c-14.9,0-29.8,0-44.6,0
		c0.2-1.1,0.4-2.2,0.6-3.3c15.9,0,31.7,0,47.6,0c-0.1-34.3,0-68.7-0.1-103.1C248.3,79.2,247.2,78.1,246.1,77.1z"/>
	<path fill="#AE8732" d="M139.7,83.5c-0.1-2.8,3-4.1,4.7-5.9c0,29.4,0,58.8,0,88.3c0,2.6,0.7,5.4,2.8,7c1.8,1.5,4.2,2.1,6.4,2
		c10.7,0,21.6-0.7,32.2,1.2c-0.7,0.9-1.4,1.7-2.1,2.6c-14.6,0-29.3,0-44,0C139.7,147,139.7,115.3,139.7,83.5L139.7,83.5z"/>
	<path fill="#AE8732" d="M240.4,77.7c1.6,1.4,3.2,2.9,4.8,4.4c0,32.4,0,64.9,0,97.3c-14.7-0.1-29.3,0-44-0.1c-0.6-1-1.2-2-1.8-3
		c4.3-0.2,8.6-0.7,12.9-1c6.2-0.1,12.4-0.1,18.7,0.1c2.8,0.1,6-0.6,7.9-2.9c1.6-1.8,1.6-4.3,1.6-6.6
		C240.4,136.5,240.5,107.1,240.4,77.7L240.4,77.7z"/>
	<path fill="#AE8732" d="M189.7,178.3c2.6-1.7,6.5-0.4,7.6,2.6c2.2,3.8-2.4,8.8-6.4,7.2C186.4,187,185.7,180.4,189.7,178.3
		L189.7,178.3z"/>
	<g>
		<path d="M181,129.8c-4.5,0-4.6,0.1-4.6,3.2v15.9c0,10.3,0.7,11.3,5.6,11.9l3.5,0.4c0.9,0.7,0.9,3.2,0,3.9
			c-6.3-0.2-11.8-0.3-16.8-0.3c-5.3,0-10.8,0.1-16.4,0.3c-0.9-0.7-0.9-3.2,0-3.9l2.6-0.3c5.1-0.7,5.6-1.8,5.6-12v-41.1
			c0-10.3-0.6-11.4-5.6-12l-2.6-0.3c-0.9-0.7-0.9-3.2,0-3.9c5.4,0.2,11.1,0.3,16.4,0.3c5,0,10.5-0.1,15.3-0.3c0.9,0.7,0.9,3.2,0,3.9
			l-2.3,0.3c-4.7,0.7-5.4,1.8-5.4,12v12.8c0,3.2,0.1,3.3,4.6,3.3h23c4.6,0,4.6-0.1,4.6-3.3v-12.8c0-10.3-0.6-11.1-5.6-11.9l-3-0.4
			c-0.9-0.7-0.9-3.2,0-3.9c6.1,0.2,11.5,0.3,16.8,0.3c5.4,0,10.5-0.1,15.6-0.3c0.9,0.7,0.9,3.2,0,3.9l-2.2,0.3
			c-5.1,0.8-5.7,1.8-5.7,12v41.1c0,10.3,0.7,11,5.7,11.9l2.6,0.4c0.9,0.7,0.9,3.2,0,3.9c-5.5-0.2-10.9-0.3-16-0.3
			c-5.5,0-10.9,0.1-16.2,0.3c-0.9-0.7-0.9-3.2,0-3.9l2.4-0.3c5.1-0.7,5.6-1.8,5.6-12V133c0-3.1,0-3.2-4.6-3.2H181z"/>
	</g>
	<g>
		<path fill="none" d="M356.7,830.2c13.2-48.9,30.6-116.3,43.7-165.2c2.6-9.8,6.6-19.3,5.1-29.8c-0.3-2.3-0.3-4.9-3.4-4.1
			c-4.8,1.1-10.6-3.3-14.3,2.8c-0.1,0.1-0.1,0.3-0.1,0.5c-1,4.9-2,9.8-3,14.7c-9.2,45.7-18.3,91.5-27.5,137.2"/>
		<path fill="none" d="M407.5,408.6c-0.6-0.7-1.6-1.7-2.3-1.6c-4.4,0.7-9.1,1.1-13.1,2.8c-1.9,0.8-2.6,4.3-3.8,6.7
			c-1.5,3-2.9,6-4.4,8.9c-1.1,2.1-2.3,4.2-3.7,6.8c15.8,0,30.7,0,45.5,0C419.5,424,413.5,416.3,407.5,408.6z"/>
		<path fill="none" d="M434.8,630.9c-14.8,0-15.2,0.3-14.3,15.2c1.9,31.3,3.9,62.6,5.8,93.9c1.5,24.8,3.1,49.6,4.5,74.4
			c0.2,3.5,1.2,5.2,5,4.9c4.1-0.3,8.4-0.3,12.5,0c4.4,0.4,5.7-1.3,5.9-5.6c2.9-59.1,6-118.2,9-177.3c0.1-1.6,0-3.2,0-5.4
			C453.3,630.9,444,630.9,434.8,630.9z"/>
		<path d="M610.2,526.2c12.6,7.4,24.8,16.1,37.2,23.6c1.5,0.9,3,1.7,4.8,2.7V423.8c-14.7,9-28.8,17.6-42.9,26.1
			c-1.8,1.1-3.9,2.2-5.9,2.3c-12.1,0.2-24.2,0.1-37,0.1V433h-17.8c-0.3-1.1-0.3-1-0.6-2.1c1.3-0.7,2.8-1.3,3.8-2.3
			c16.8-16.2,26.4-36,28.4-59.1c3.7-43.9-21.5-83.1-63.3-97.1c-35.4-11.8-67.1-3.8-94.4,21.5c-14,13-22.4,29.3-26.7,47.7
			c-0.3,1.4-0.8,3.1-1.8,3.9c-4.1,3.1-10.7,1.7-13.6-2.5c-17.9-26.1-50.8-39.3-81.2-31.1c-33,8.8-52.6,30.7-58.6,64.4
			c-6.1,34.4,16.5,72.3,49.6,83.5c7.7,2.6,7.7,2.6,6.7,11.8c-1.8,0.3-3.7,0.5-5.6,0.8c-10,1.6-18.3-4-27.3-6.4
			c-4.7-1.3-9.9-1-15.9-1.6c6.6,13.9,12.6,26.4,18.5,38.9c2.1,4.4,6.8,4.9,10.2,1.2c0.9-1,1.3-2.4,2.2-3.3c1-1,2.2-2.3,3.5-2.3
			c4.8-0.3,9.6-0.1,14.8-0.1v95.7h23.8c-0.8,7.9-1.4,15.2-2.6,22.4c-0.2,1.3-2.7,2.8-4.3,3.2c-15.9,3.2-31.8,5.8-47.6,9.3
			c-5.6,1.2-9.9,0-14.7-2.4c-3-1.5-7-2.5-10.3-1.9c-13,2.1-25.9,4.8-38.9,7.2c-2.6,0.5-3.9,1.4-3.5,4.2c1.1,7.4,2.1,14.8,3.2,23
			c2.3-0.3,4.1-0.5,5.9-0.8c11.5-2.2,22.9-4.7,34.4-6.5c5.3-0.8,9.5-2.8,12.7-7c3.4-4.5,8.1-6.3,13.6-7.4
			c17.3-3.5,34.5-7.5,51.9-11.1c3.4-0.7,4.7-2.3,5.2-5.5c0.9-6.4,2.3-12.8,3-19.3c0.5-4.7,4.9-6.8,7.4-7c10.1-0.9,20.2-0.4,31.1-0.4
			c0,10.2,0,19.8,0,29.4c0,7.1,0,7.1,6.8,8.1c0.3,0,0.5,0.4,0.9,0.9c-0.2,1.1-0.3,2.4-0.5,3.7c-11.6,57.6-23.6,119-35.2,176.5
			l10.1,7.9l37.6-185.7c0.4-2.1,2.3-3.7,4.5-3.6l10,0.1c3.7-0.1,3.1,1.9,3.4,4.1c1.5,10.5-2.5,20.1-5.1,29.8L357.6,827l9.3,7.4
			l40.2-147.5c1.1,1,1.4,1.9,1.5,2.8c1.9,30,3.8,60,5.6,89.9c2.1,34.6,3.9,64.6,6.1,99.3l14.5,2.1c-0.9-12-1.6-24-2.2-36
			c-0.1-1.5,1.2-4.4,2.1-4.5c5.8-0.4,11.5-0.2,17.7-0.2c-0.5,11.4-0.8,25.9-1.3,37.5l14.5-7.3c0.8-8.3,1.5-25.3,1.9-33.6
			c2.6-53.8,5.2-107.7,7.8-161.5c0.1-1.3,0.4-2.6,0.7-3.9c1.3,1.1,1.8,2.1,2.1,3.2c6.4,23.5,13,46.9,19,70.5
			c6.9,27,14,58.8,21.8,86.6l11.6-9.8c-14.7-54.1-31.6-116.4-46.3-170.5c-1.7-6.4-3.3-12.8-5.2-19.8c6.8,0,12.8-0.2,18.8,0.2
			c1.3,0.1,3.1,2.3,3.4,3.8c10.1,49.9,20.1,99.7,30,149.6c1.8,8.8,4.3,21.9,6.3,31.5c2.7-2.1,6.1-4.1,8.3-5.5
			c2.8-1.9,2.8-1.9,0.7-11.7c-2.1-8.9-3.6-18-5.4-27c-8.7-43.2-17.4-86.3-26.1-129.5c-0.7-3.5-1.2-7.1-2-11.2
			c6.8,0.9,7.1-2.9,6.9-7.6c-0.3-9.8-0.1-19.6-0.1-29.9h45.8v-70.3c3.3,0,6.6,0,9.8,0c0.9-1.8,1.8-3.7,2.7-5.5 M384.5,649.9
			 M380,433c1.4-2.6,2.6-4.7,3.7-6.8c1.5-3,2.9-6,4.4-8.9c1.2-2.3,1.9-5.9,3.8-6.7c4.1-1.7,8.7-2.1,13.1-2.8
			c0.7-0.1,1.7,0.9,2.3,1.6c6,7.7,12,15.4,18.3,23.5C410.7,433,395.8,433,380,433z M462.9,637.3c-3,59.1-6.1,118.2-9,177.3
			c-0.2,4.3-1.5,6-5.9,5.6c-4.1-0.4-8.3-0.3-12.5,0c-3.8,0.3-4.8-1.4-5-4.9c-1.4-24.8-3-49.6-4.5-74.4c-1.9-31.3-3.9-62.6-5.8-93.9
			c-0.9-14.9-0.5-15.2,14.3-15.2c9.3,0,18.6,0,28.3,0C462.9,634,463,635.6,462.9,637.3z"/>
		<path fill="#FFFFFF" d="M652.3,552.6l-42.1-26.3c-4.3-5.5-6.4-8.2-10.6-13.6c-0.6-0.7-4.3-3.4-5-3.3c-4.4,0.7-8.7,1.2-12.8,2.9
			c-1.9,0.8-2.3,3.2-3.5,5.5l-2.9,6.5l-9.8,0v70.3"/>
	</g>
	<line fill="none" x1="525.1" y1="83.7" x2="525.3" y2="171.5"/>
	<line fill="none" x1="693.4" y1="84.1" x2="693.5" y2="171.9"/>
	<line fill="none" x1="356.9" y1="83.3" x2="357.1" y2="171"/>
	<line fill="none" x1="193.9" y1="83.3" x2="194.1" y2="171"/>
	<path fill="#FFFFFF" d="M519.9,594.5"/>
</g>
<g id="Layer_5">
	<line fill="none" stroke="#000000" stroke-width="9.029" stroke-miterlimit="10" x1="78.5" y1="226.6" x2="800" y2="226.6"/>
</g>
</svg>
